# Alias OBJ Model File
# Exported from SketchUp, (c) 2000-2012 Trimble Navigation Limited
# File units = inches

mtllib attempt1.mtl

g Mesh1 Exterior_Revit_dwg_688959__3D_1 Model

usemtl _53
v -114.35 -14.6229 -123.535
vt 111.175 93.3989
vn 1 0 -1.52656e-16
v -114.35 1.13986 -76.2777
vt 157.964 109.818
v -114.35 -39.8038 -41.9998
vt 191.903 67.1688
f 1/1/1 2/2/1 3/3/1

v -102.11 50.8001 -123.321
vt -158.596 85.9483
vn -0.984719 0.163373 -0.0603175
vt -135.83 20.6029
vt -185.417 20.6029
f 4/4/2 1/5/2 2/6/2

v -114.35 16.7726 -156.566
vt 33.6807 101.242
vn -0.97243 0.160658 0.169025
vt -12.5693 101.242
vt 35.4693 151.048
f 5/7/3 1/8/3 4/9/3

vt -78.4708 126.103
vn -1 0 1.52656e-16
v -114.35 8.34862 -194.461
vt -40.9509 117.328
vt -111.175 93.3989
f 5/10/4 6/11/4 1/12/4

vt -66.5939 -3.41297
vn -0.844859 0.519493 -0.127825
vt -105.126 -3.41297
v -77.6302 71.8596 -146.724
vt -127.682 61.2006
f 6/13/5 5/14/5 7/15/5

vt -165.722 14.4017
vn -0.799047 0.520417 -0.301148
vt -129.53 -43.6827
vt -175.453 -24.3212
f 7/16/6 5/17/6 4/18/6

vt -75.3649 -20.4505
vn -0.59222 0.786354 0.17585
v -77.6302 64.4391 -109.995
vt -85.3162 8.75373
vt -48.1386 8.75373
f 4/19/7 8/20/7 7/21/7

vt -24.7055 0.805693
vn -0.63308 0.679909 0.370046
v -102.11 26.6426 -74.1908
vt -79.4726 0.805693
vt -29.896 31.2191
f 4/22/8 9/23/8 8/24/8

vt -24.7055 108.779
vn -0.906653 0.370549 0.201675
vt -89.8435 81.4582
vt -79.4726 108.779
f 4/25/9 2/26/9 9/27/9

vt -126.443 90.591
vn -0.918912 0.383998 0.0902578
vt -130.219 61.6128
v -89.8702 32.8462 18.779
vt -214.869 119.569
f 9/28/10 2/29/10 10/30/10

vt -45.1861 243.145
vn -0.970714 0.144922 0.191605
vt -12.4271 145.927
v -105.76 -14.3099 -20.6716
vt -59.3013 180.043
f 10/31/11 2/32/11 11/33/11

vt -66.9324 145.927
f 3/34/11 11/33/11 2/32/11

vt 168.589 14.8937
vn -0.745103 -0.246114 0.619878
vt 135.946 2.38437
v -77.6302 -79.3992 -16.1241
vt 107.762 55.856
f 11/35/12 3/36/12 12/37/12

v -81.7102 -93.2754 -86.7339
vt -145.133 -56.5211
vn 0.808138 0.564363 -0.168547
vt -202.951 -108.916
vt -216.334 -49.9717
f 13/38/13 3/39/13 12/40/13

vt -136.843 -107.431
vn 0.910516 0.391245 0.133744
vt -76.8714 -181.374
vt -161.754 -181.374
f 13/41/14 1/42/14 3/43/14

v -89.8702 -83.8753 -146.242
vt -91.179 -49.4937
vn 0.945608 0.31732 -0.0716529
vt -128.299 -119.547
vt -146.731 -26.1427
f 14/44/15 1/45/15 13/46/15

vt -83.1606 -34.3841
vn 0.882847 0.364265 -0.296468
v -102.11 -80.5439 -177.45
vt -60.8447 -59.1379
vt -145.082 -83.8918
f 14/47/16 15/48/16 1/49/16

v -81.7102 -104.286 -157.905
vt -66.4593 -37.5793
vn 0.852595 0.444114 -0.275399
vt -62.3467 -74.5816
vt -87.2033 -52.3802
f 16/50/17 15/51/17 14/52/17

v -81.7102 -104.286 -190.983
vt -44.3945 -82.0595
vn 0.795731 0.60565 -1.08364e-16
vt -57.7938 -113.866
vt -77.1445 -82.0595
f 17/53/18 15/54/18 16/55/18

vt -40.2247 -91.0118
vn 0.828161 0.503055 0.247154
v -89.8702 -88.2059 -200.401
vt -24.6885 -104.801
vt -41.9011 -125.484
f 17/56/19 18/57/19 15/58/19

vt -13.358 -99.1745
vn 0.881201 0.329453 0.339037
v -114.35 -33.3405 -197.028
vt 24.2182 -148.586
vt -24.022 -123.88
f 18/59/20 19/60/20 15/61/20

vt -4.88338 -129.436
vn -0.666174 -0.223787 -0.711429
vt -58.0917 -161.41
v -78.8447 -18.4957 -234.795
vt -84.5203 -115.036
f 18/62/21 19/63/21 20/64/21

vt 76.0196 -134.558
vn 0.742783 -0.0371954 0.668498
vt 89.2714 -82.853
vt 119.52 -134.558
f 19/65/22 20/66/22 6/67/22

vt 89.0792 -81.9897
vn 0.733606 -0.0594472 0.67697
v -89.8702 49.4408 -216.477
vt 161.215 -97.8086
vt 120.597 -132.931
f 20/68/23 21/69/23 6/70/23

vt 43.8001 22.9822
vn 0.886706 -0.462181 0.0118623
vt 23.0522 72.509
vt 92.6635 97.2724
f 6/71/24 21/72/24 7/73/24

vt 119.085 16.947
vn 0.692306 -0.709206 0.133189
vt 46.9939 0.766859
v -65.3902 77.6124 -175.199
vt 92.3845 33.1271
f 7/74/25 21/75/25 22/76/25

vt -38.4088 73.9014
f 19/77/4 1/12/4 6/11/4

vt -62.2254 -42.2339
vn 0.977489 0.203072 -0.057247
vt -56.2272 -96.0995
vt -131.56 -96.0995
f 15/78/26 19/79/26 1/80/26

vt 187.551 -186.928
vn -0.928767 -0.360889 -0.084561
vt 206.685 -116.134
v -89.8702 -65.966 52.232
vt 269.704 -146.939
f 11/81/27 12/82/27 23/83/27

vt 135.851 156.787
vn -0.982738 -0.0365317 0.181361
vt 98.1766 240.026
v -89.8702 -26.0097 61.1406
vt 140.722 240.026
f 11/84/28 23/85/28 24/86/28

vt -294.022 81.5377
vt -285.201 39.9165
v -89.8702 -76.6845 69.5966
vt -302.394 28.7514
f 24/87/4 23/88/4 25/89/4

v -102.11 8.65212 69.5602
vt -68.8273 -338.305
vn -0.760252 -0.0968406 -0.642369
vt -34.4729 -319.95
vt 18.9733 -319.95
f 26/90/29 24/91/29 25/92/29

vt -98.718 -320.038
vn 0.918996 0.21493 0.330532
vt -24.4359 -320.038
vt -73.6252 -349.829
f 24/93/30 10/94/30 26/95/30

vt -24.4359 244.615
vn -0.969405 0.133813 0.205786
v -97.57 9.99525 -0.338047
vt -33.3943 214.588
vt -98.718 244.615
f 10/96/31 27/97/31 24/98/31

vt -52.0261 212.567
f 27/99/11 10/31/11 11/33/11

vt -42.9228 182.651
f 27/97/31 11/100/31 24/98/31

vt 285.106 10.0276
vn 0.962648 -0.254097 0.0935034
v -83.1554 56.917 23.4002
vt 297.703 33.1421
vt 324.244 -32.106
f 10/101/32 28/102/32 26/103/32

vt 167.609 192.591
vn 0.969266 -0.220639 -0.108823
vt 87.0067 146.092
vt 161.109 218.1
f 10/104/33 9/105/33 28/106/33

v -77.6302 76.7231 27.2027
vt 155.76 239.089
f 29/107/33 28/106/33 9/105/33

vt 306.65 -38.0141
vn 0.948404 -0.264646 0.174621
vt 320.801 -21.6156
v -98.0302 45.8864 84.1081
vt 351.466 -82.1621
f 28/108/34 29/109/34 30/110/34

vt 273.547 45.3227
vn 0.702866 -0.691297 -0.167595
vt 211.431 72.6689
v -53.1502 83.1206 98.6559
vt 278.873 105.484
f 30/111/35 29/112/35 31/113/35

vt 200.12 90.8455
vn 0.698057 -0.617155 -0.363093
vt 193.762 150.907
v -89.8702 26.9741 135.071
vt 253.776 101.766
f 30/114/36 31/115/36 32/116/36

vt 258.03 103.178
vn 0.707279 -0.614515 -0.349468
vt 198.501 152.906
v -61.3102 43.4257 159.724
vt 271.353 141.855
f 32/117/37 31/118/37 33/119/37

v -71.5102 -15.3835 150.825
vt -93.2523 160.405
vn 0.660347 0.00120399 -0.750959
vt -137.348 136.538
vt -154.527 173.665
f 34/120/38 32/121/38 33/122/38

vt -110.308 178.512
vn 0.703341 0.0314223 -0.710158
v -114.35 10.3044 110.483
vt -135.18 119.717
vt -153.657 153.314
f 34/123/39 35/124/39 32/125/39

vt -117.439 178.977
vn 0.707344 0.0439394 -0.705503
v -77.6302 -88.4177 139.774
vt -40.809 170.531
vt -141.528 119.857
f 34/126/40 36/127/40 35/128/40

v -89.8702 -80.3472 105.719
vt -248.502 163.776
vn 0.934231 0.236165 -0.26728
vt -320.874 98.3746
vt -265.302 196.476
f 37/129/41 35/130/41 36/131/41

vt -338.857 -46.0421
vn 0.972421 0.23305 -0.00921296
v -114.35 9.5595 89.6247
vt -326.45 -143.237
vt -347.115 -143.237
f 37/132/42 38/133/42 35/134/42

v -77.6302 -90.8691 78.3203
vt -207.542 -263.44
vn 0.919104 0.268341 0.288516
vt -140.599 -352.23
vt -218.681 -293.036
f 39/135/43 38/136/43 37/137/43

vt -174.93 122.938
vn 0.789886 0.309659 -0.52933
vt -182.986 103.65
vt -269.887 65.0744
f 39/138/44 25/139/44 38/140/44

vt -48.0081 -352.222
vn -0.855489 -0.108888 -0.506243
vt 38.6999 -329.254
vt -44.5454 -375.191
f 26/141/45 25/142/45 38/143/45

vt -287.793 -251.878
vn -0.823324 0.258308 -0.505385
vt -246.811 -258.827
vt -257.052 -279.676
f 30/144/46 26/145/46 38/146/46

vt 286.944 -185.936
vn 0.966146 -0.164062 0.199113
vt 294.996 -115.958
vt 325.686 -170.873
f 26/147/47 28/148/47 30/149/47

vt 326.45 35.0424
vn 0.929716 -0.36799 0.0145474
vt 322.412 76.2909
vt 347.115 35.0424
f 38/150/48 30/151/48 35/152/48

vt 232.202 103.052
vn 0.767575 -0.541504 -0.342932
vt 190.714 127.352
vt 244.105 139.501
f 35/153/49 30/154/49 32/155/49

usemtl _14
vt 254.615 -216.928
vn -0.90115 -0.359832 -0.241763
v -73.5502 -104.286 85.5126
vt 268.139 -208.032
vt 271.58 -243.616
f 39/156/50 40/157/50 37/158/50

usemtl _53
vt -317.699 -54.1807
vn 0.845347 0.533375 -0.0299953
vt -339.008 -82.886
v -73.5502 -101.844 133.569
vt -365.348 -54.1807
f 40/159/51 37/160/51 41/161/51

vt -308.951 124.403
vn 0.910863 0.341775 -0.231341
vt -297.878 87.0517
vt -321.685 115.065
f 41/162/52 37/163/52 36/164/52

vt 172.115 31.2042
vn 0.88304 -0.46701 0.0462825
vt 140.514 80.0321
vt 276.955 80.0321
f 9/165/53 8/166/53 29/167/53

g Mesh2 Exterior_Revit_dwg_688959__3D_1 Model

v 66.1898 -79.3992 -16.1241
vt 213.221 50.947
vn 0.88536 -0.461638 -0.055025
v 102.91 -16.3437 -22.3731
vt 199.679 124.874
v 78.4298 -65.966 52.232
vt 278.895 75.5892
f 42/168/54 43/169/54 44/170/54

v 102.91 -39.8038 -41.9998
vt 172.012 -53.9277
vn 0.794281 -0.366332 0.484684
vt 203.234 -53.9277
vt 155.675 -112.122
f 45/171/55 43/172/55 42/173/55

v 102.91 1.13986 -76.2777
vt -157.964 109.818
vt -191.903 67.1688
vt -211.335 91.6065
f 46/174/4 45/175/4 43/176/4

vn -1 7.11255e-16 1.09302e-15
v 102.91 -14.6229 -123.535
f 46/174/56 47/12/56 45/175/56

v 90.6698 50.8001 -123.321
vt 158.596 -106.516
vn -0.984719 -0.163373 0.0603175
vt 135.83 -41.1705
vt 185.417 -41.1705
f 48/177/57 47/178/57 46/179/57

v 102.91 16.7726 -156.566
vt -33.6807 -128.227
vn -0.97243 -0.160658 -0.169025
vt 12.5693 -128.227
vt -35.4693 -178.032
f 49/180/58 47/181/58 48/182/58

vn -1 1.32582e-15 -1.7357e-16
v 102.91 8.34862 -194.461
f 49/10/59 50/11/59 47/12/59

vt -105.126 -58.9888
vn 0.844859 0.519493 -0.127825
vt -66.5939 -58.9888
v 66.1898 71.8596 -146.724
vt -127.682 -123.602
f 49/183/60 50/184/60 51/185/60

vt -43.8001 -77.2558
vn 0.886706 0.462181 -0.0118623
v 78.4298 49.4408 -216.477
vt -23.0522 -126.783
vt -92.6635 -151.546
f 50/186/61 52/187/61 51/188/61

v 67.4043 -18.4957 -234.795
vt -89.0792 5.45784
vn 0.733606 0.0594472 -0.67697
vt -161.215 21.2767
vt -120.597 56.3993
f 53/189/62 52/190/62 50/191/62

v 102.91 -33.3405 -197.028
vt -76.0196 59.1569
vn 0.742783 0.0371954 -0.668498
vt -89.2714 7.45162
vt -119.52 59.1569
f 54/192/63 53/193/63 50/194/63

vt -58.0917 77.3406
vn 0.666174 -0.223787 -0.711429
v 78.4298 -88.2059 -200.401
vt -4.88338 45.367
vt -84.5203 30.9664
f 54/195/64 55/196/64 53/197/64

vt 13.358 44.7738
vn 0.881201 -0.329453 -0.339037
vt -24.2182 94.185
v 90.6698 -80.5439 -177.45
vt 24.022 69.4794
f 55/198/65 54/199/65 56/200/65

vt 62.2254 17.2829
vn 0.977489 -0.203072 0.057247
vt 56.2272 71.1485
vt 131.56 71.1485
f 56/201/66 54/202/66 47/203/66

vn -1 4.3725e-17 -6.33196e-16
f 50/11/67 54/77/67 47/12/67

v 78.4298 -83.8753 -146.242
vt 83.1606 -19.9105
vn 0.882847 -0.364265 0.296468
vt 60.8447 4.84336
vt 145.082 29.5972
f 57/204/68 56/205/68 47/206/68

vt -62.3467 14.0448
vn -0.852595 0.444114 -0.275399
v 70.2698 -104.286 -157.905
vt -66.4593 -22.9575
vt -87.2033 -8.15654
f 56/207/69 58/208/69 57/209/69

vt -57.7938 43.4392
vn -0.795731 0.60565 1.08364e-16
v 70.2698 -104.286 -190.983
vt -44.3945 11.6329
vt -77.1445 11.6329
f 56/210/70 59/211/70 58/212/70

vt -24.6885 39.8219
vn -0.828161 0.503055 0.247154
vt -40.2247 26.0328
vt -41.9011 60.5055
f 55/213/71 59/214/71 56/215/71

vt 91.179 11.1229
vn 0.945608 -0.31732 0.0716529
vt 128.299 81.176
v 70.2698 -93.2754 -86.7339
vt 146.731 -12.2282
f 57/216/72 47/217/72 60/218/72

vt -76.8714 132.904
vn -0.910516 0.391245 0.133744
vt -136.843 58.9614
vt -161.754 132.904
f 47/219/73 60/220/73 45/221/73

vt -202.951 40.5124
vn -0.808138 0.564363 -0.168547
vt -145.133 -11.8825
vt -216.334 -18.4319
f 45/222/74 60/223/74 42/224/74

v 53.9498 77.6124 -175.199
vt -92.3845 -116.192
vn 0.692306 0.709206 -0.133189
vt -119.085 -100.012
vt -46.9939 -83.8317
f 61/225/75 51/226/75 52/227/75

vt -129.53 -25.7335
vn 0.799047 0.520417 -0.301148
vt -165.722 -83.8179
vt -175.453 -45.095
f 49/228/76 51/229/76 48/230/76

v 66.1898 64.4391 -109.995
vt 85.3162 -100.795
vn -0.59222 -0.786354 -0.17585
vt 48.1386 -100.795
vt 75.3649 -71.591
f 62/231/77 51/232/77 48/233/77

v 90.6698 26.6426 -74.1908
vt 79.4726 -89.1878
vn -0.63308 -0.679909 -0.370046
vt 29.896 -119.601
vt 24.7055 -89.1878
f 63/234/78 62/235/78 48/236/78

vt 24.7055 -157.972
vn -0.906653 -0.370549 -0.201675
vt 89.8435 -130.651
vt 79.4726 -157.972
f 48/237/79 46/238/79 63/239/79

vt -130.219 -107.993
vn 0.918912 0.383998 0.0902578
vt -126.443 -136.971
v 78.4298 32.8462 18.779
vt -214.869 -165.949
f 46/240/80 63/241/80 64/242/80

v 86.5898 10.3356 -0.0533227
vt -83.4716 -231.112
vn 0.96802 0.174894 0.179859
vt -36.198 -169.398
vt -80.4147 -261.969
f 65/243/81 46/244/81 64/245/81

vt -170.426 -117.975
vn 0.910949 0.388257 0.139387
vt -114.034 -117.975
vt -182.366 -155.044
f 43/246/82 46/247/82 65/248/82

vt -79.9545 -175.726
vn 0.915377 0.27093 0.297794
vt -75.1588 -214.374
v 78.4298 -26.0097 61.1406
vt -144.404 -233.698
f 43/249/83 65/250/83 66/251/83

vt -33.2609 -241.198
vn 0.964843 0.143277 0.220341
vt -24.4359 -270.924
vt -98.718 -270.924
f 65/252/84 64/253/84 66/254/84

vt 98.718 274.924
vn 0.918996 -0.21493 -0.330532
vt 24.4359 274.924
v 90.6698 8.65212 69.5602
vt 73.6252 304.714
f 66/255/85 64/256/85 67/257/85

vt -298.614 132.212
vn 0.977056 0.14867 -0.152506
vt -280.209 77.7293
v 86.5898 45.8864 84.1081
vt -336.004 114.051
f 67/258/86 64/259/86 68/260/86

vt -289.722 7.15951
vn 0.930571 0.316567 -0.183909
v 70.2698 56.4751 23.3154
vt -305.552 -13.8027
vt -352.911 28.1217
f 64/261/87 69/262/87 68/263/87

v 66.1898 76.7231 27.2027
vt 318.202 48.2482
vn -0.955174 -0.207172 0.211475
vt 300.752 61.3321
vt 336.271 113.668
f 70/264/88 69/265/88 68/266/88

v 41.7098 83.1206 98.6559
vt 278.873 -187.397
vn -0.702866 -0.691297 -0.167595
vt 211.431 -154.582
vt 273.547 -127.235
f 71/267/89 70/268/89 68/269/89

vt 193.762 -232.956
vn -0.698057 -0.617155 -0.363093
vt 200.12 -172.895
v 78.4298 26.9741 135.071
vt 253.776 -183.815
f 71/270/90 68/271/90 72/272/90

vt 190.714 -201.099
vn -0.767575 -0.541504 -0.342932
v 102.91 10.3044 110.483
vt 232.202 -176.8
vt 244.105 -213.248
f 68/273/91 73/274/91 72/275/91

v 102.91 9.5595 89.6247
vt -326.45 -78.4865
vn 0.929716 0.36799 -0.0145474
vt -322.412 -119.735
vt -347.115 -78.4865
f 74/276/92 68/277/92 73/278/92

vt -246.811 194.363
vn 0.823324 0.258308 -0.505385
vt -287.793 187.413
vt -257.052 215.212
f 67/279/93 68/280/93 74/281/93

vt 14.1346 272.414
vn 0.851088 -0.156225 -0.501241
vt -17.5766 295.031
vt -12.2848 317.648
f 66/282/94 67/283/94 74/284/94

v 78.4298 -76.6845 69.5966
vt 18.9733 262.224
vn 0.81722 -0.0859134 -0.569887
vt -34.4729 262.224
vt -66.6488 303.562
f 75/285/95 66/286/95 74/287/95

vt 285.201 39.9165
vt 294.022 81.5377
vt 302.394 28.7514
f 44/288/1 66/289/1 75/290/1

vt 98.1766 -252.707
vn 0.961501 -0.0542634 0.26939
vt 133.43 -166.328
vt 140.722 -252.707
f 44/291/96 43/292/96 66/293/96

vt -326.45 115.883
vn -0.969285 0.24575 -0.00971503
vt -303.26 23.6752
vt -347.115 115.883
f 74/294/97 75/295/97 73/296/97

vt -228.682 -145.818
vn -0.81669 0.385813 -0.429145
v 66.1898 -90.8691 78.3203
vt -223.883 -166.162
vt -322.33 -105.13
f 75/297/98 76/298/98 73/299/98

vt -163.923 249.674
vn -0.925482 0.206304 0.317681
v 78.4298 -80.3472 105.719
vt -170.177 280.673
vt -94.8692 342.671
f 76/300/99 77/301/99 73/302/99

vt -254.615 166.569
vn -0.90115 0.359832 0.241763
v 62.1098 -104.286 85.5126
vt -268.139 157.673
vt -271.58 193.257
f 76/303/100 78/304/100 77/305/100

vt -339.008 20.4587
vn -0.845347 0.533375 -0.0299953
vt -317.699 -8.24667
v 62.1098 -101.844 133.569
vt -365.348 -8.24667
f 77/306/101 78/307/101 79/308/101

vt -297.878 -135.028
vn -0.910863 0.341775 -0.231341
vt -308.951 -172.38
v 66.1898 -88.4177 139.774
vt -321.685 -163.042
f 77/309/102 79/310/102 80/311/102

vt -320.874 -139.475
vn -0.934231 0.236165 -0.26728
vt -248.502 -204.876
vt -265.302 -237.577
f 73/312/103 77/313/103 80/314/103

vt -40.809 -250.098
vn -0.707344 0.0439394 -0.705503
v 60.0698 -15.3835 150.825
vt -117.439 -258.543
vt -141.528 -199.423
f 80/315/104 81/316/104 73/317/104

vt -135.18 -199.724
vn -0.703341 0.0314223 -0.710158
vt -110.308 -258.519
vt -153.657 -233.321
f 73/318/105 81/319/105 72/320/105

vt -137.348 -221.006
vn -0.660347 0.00120399 -0.750959
vt -93.2523 -244.873
v 49.8698 43.4257 159.724
vt -154.527 -258.133
f 72/321/106 81/322/106 82/323/106

vt 198.501 -233.987
vn -0.707279 -0.614515 -0.349468
vt 258.03 -184.258
vt 271.353 -222.936
f 71/324/107 72/325/107 82/326/107

g Mesh3 Exterior_Revit_dwg_688959__3D_1 Model

l 54 53

l 50 54

l 51 50

l 61 51

l 52 61

l 53 52

l 50 53

l 49 50

l 47 49

l 48 47

l 46 48

l 63 46

l 62 63

l 51 62

l 49 51

l 48 49

l 62 48

l 51 48

l 52 51

l 50 52

l 64 63

l 46 64

l 47 46

l 47 56

l 57 47

l 56 57

l 56 55

l 54 55

l 54 47

l 60 47

l 57 60

l 58 57

l 59 58

l 55 59

l 55 53

l 42 60

l 43 42

l 45 43

l 47 45

l 45 46

l 60 45

l 45 42

l 42 44

l 44 43

l 66 44

l 43 66

l 65 43

l 66 65

l 64 66

l 65 64

l 67 64

l 66 67

l 68 67

l 74 68

l 67 74

l 73 74

l 77 73

l 76 77

l 75 76

l 75 44

l 74 75

l 76 78

l 78 79

l 79 80

l 73 80

l 81 73

l 72 81

l 73 72

l 68 73

l 68 70

l 72 68

l 82 72

l 81 82

l 80 81

l 80 77

l 71 82

l 70 71

l 69 70

l 68 69

l 71 68

l 72 71

v 41.7098 -96.1276 98.6559
l 83 71

v 41.7098 90.808 98.6559
l 71 84

l 64 69

g Mesh4 Exterior_Revit_dwg_688959__3D_1 Model

l 20 21

l 18 20

l 19 18

l 6 19

l 7 6

l 22 7

l 21 22

l 6 21

l 5 6

l 1 5

l 4 1

l 2 4

l 9 2

l 8 9

l 29 8

l 31 29

v -53.1502 -96.1276 98.6559
l 85 31

l 31 30

l 32 31

l 35 32

l 37 35

l 39 37

l 25 39

l 25 23

l 26 25

l 26 10

l 30 26

l 32 30

l 33 32

l 34 33

l 36 34

l 35 36

l 34 35

l 32 34

l 30 35

l 30 28

l 29 30

l 29 28

l 28 10

l 10 9

l 10 2

l 10 27

l 10 24

l 24 23

l 27 24

l 27 11

l 11 12

l 23 11

l 12 23

l 12 13

l 3 12

l 1 3

l 1 15

l 14 1

l 15 14

l 15 18

l 19 15

l 20 19

l 6 20

l 19 1

l 1 2

l 13 1

l 14 13

l 16 14

l 17 16

l 18 17

l 13 3

l 3 2

l 11 3

l 11 24

l 24 26

l 26 38

l 30 38

l 35 38

l 37 38

l 36 37

l 41 36

l 40 41

l 39 40

l 31 33

v -53.1502 90.808 98.6559
l 31 86

l 7 8

l 5 7

l 4 5

l 8 4

l 7 4

l 21 7

